<?xml version="1.0"?>
<svg xmlns="http://www.w3.org/2000/svg" xmlns:xlink="http://www.w3.org/1999/xlink" xmlns:svgjs="http://svgjs.com/svgjs" version="1.1" width="512" height="512" x="0" y="0" viewBox="0 0 74 74" style="enable-background:new 0 0 512 512" xml:space="preserve"><g><path xmlns="http://www.w3.org/2000/svg" d="m39.47 4h-2.94a1 1 0 0 1 0-2h2.94a1 1 0 0 1 0 2z" fill="#ffffff" data-original="#000000" style=""/><path xmlns="http://www.w3.org/2000/svg" d="m56 72h-38a1 1 0 0 1 -1-1v-68a1 1 0 0 1 1-1h11.53a1 1 0 0 1 0 2h-10.53v66h36v-66h-8.53a1 1 0 0 1 0-2h9.53a1 1 0 0 1 1 1v68a1 1 0 0 1 -1 1z" fill="#ffffff" data-original="#000000" style=""/><path xmlns="http://www.w3.org/2000/svg" d="m45.5 72h-17a1 1 0 0 1 -1-1v-22a1 1 0 0 1 1-1h17a1 1 0 0 1 1 1v22a1 1 0 0 1 -1 1zm-16-2h15v-20h-15z" fill="#ffffff" data-original="#000000" style=""/><path xmlns="http://www.w3.org/2000/svg" d="m71 72h-15a1 1 0 0 1 -1-1v-47a1 1 0 0 1 1-1h15a1 1 0 0 1 1 1v47a1 1 0 0 1 -1 1zm-14-2h13v-45h-13z" fill="#ffffff" data-original="#000000" style=""/><path xmlns="http://www.w3.org/2000/svg" d="m18 72h-15a1 1 0 0 1 -1-1v-47a1 1 0 0 1 1-1h15a1 1 0 0 1 1 1v47a1 1 0 0 1 -1 1zm-14-2h13v-45h-13z" fill="#ffffff" data-original="#000000" style=""/><path xmlns="http://www.w3.org/2000/svg" d="m71 35.625h-9a1 1 0 0 1 -1-1v-4.25a1 1 0 0 1 1-1h9a1 1 0 0 1 1 1v4.25a1 1 0 0 1 -1 1zm-8-2h7v-2.25h-7z" fill="#ffffff" data-original="#000000" style=""/><path xmlns="http://www.w3.org/2000/svg" d="m71 45.625h-9a1 1 0 0 1 -1-1v-4.25a1 1 0 0 1 1-1h9a1 1 0 0 1 1 1v4.25a1 1 0 0 1 -1 1zm-8-2h7v-2.25h-7z" fill="#ffffff" data-original="#000000" style=""/><path xmlns="http://www.w3.org/2000/svg" d="m71 55.625h-9a1 1 0 0 1 -1-1v-4.25a1 1 0 0 1 1-1h9a1 1 0 0 1 1 1v4.25a1 1 0 0 1 -1 1zm-8-2h7v-2.25h-7z" fill="#ffffff" data-original="#000000" style=""/><path xmlns="http://www.w3.org/2000/svg" d="m71 65.625h-9a1 1 0 0 1 -1-1v-4.25a1 1 0 0 1 1-1h9a1 1 0 0 1 1 1v4.25a1 1 0 0 1 -1 1zm-8-2h7v-2.25h-7z" fill="#ffffff" data-original="#000000" style=""/><path xmlns="http://www.w3.org/2000/svg" d="m12 35.625h-9a1 1 0 0 1 -1-1v-4.25a1 1 0 0 1 1-1h9a1 1 0 0 1 1 1v4.25a1 1 0 0 1 -1 1zm-8-2h7v-2.25h-7z" fill="#ffffff" data-original="#000000" style=""/><path xmlns="http://www.w3.org/2000/svg" d="m12 45.625h-9a1 1 0 0 1 -1-1v-4.25a1 1 0 0 1 1-1h9a1 1 0 0 1 1 1v4.25a1 1 0 0 1 -1 1zm-8-2h7v-2.25h-7z" fill="#ffffff" data-original="#000000" style=""/><path xmlns="http://www.w3.org/2000/svg" d="m12 55.625h-9a1 1 0 0 1 -1-1v-4.25a1 1 0 0 1 1-1h9a1 1 0 0 1 1 1v4.25a1 1 0 0 1 -1 1zm-8-2h7v-2.25h-7z" fill="#ffffff" data-original="#000000" style=""/><path xmlns="http://www.w3.org/2000/svg" d="m12 65.625h-9a1 1 0 0 1 -1-1v-4.25a1 1 0 0 1 1-1h9a1 1 0 0 1 1 1v4.25a1 1 0 0 1 -1 1zm-8-2h7v-2.25h-7z" fill="#ffffff" data-original="#000000" style=""/><path xmlns="http://www.w3.org/2000/svg" d="m49 12.333h-24a1 1 0 0 1 0-2h24a1 1 0 0 1 0 2z" fill="#ffffff" data-original="#000000" style=""/><path xmlns="http://www.w3.org/2000/svg" d="m49 21.111h-24a1 1 0 0 1 0-2h24a1 1 0 0 1 0 2z" fill="#ffffff" data-original="#000000" style=""/><path xmlns="http://www.w3.org/2000/svg" d="m49 29.889h-24a1 1 0 0 1 0-2h24a1 1 0 0 1 0 2z" fill="#ffffff" data-original="#000000" style=""/><path xmlns="http://www.w3.org/2000/svg" d="m49 38.667h-24a1 1 0 0 1 0-2h24a1 1 0 0 1 0 2z" fill="#ffffff" data-original="#000000" style=""/></g></svg>
