<svg height="512pt" viewBox="-17 0 511 512" width="512pt" xmlns="http://www.w3.org/2000/svg"><path d="m450.691406 212.765625v-17.910156h11.136719c6.925781 0 12.851563-4.234375 15.097656-10.785157 2.242188-6.546874.164063-13.527343-5.304687-17.773437l-205.496094-159.671875c-5.496094-4.273438-12.359375-6.625-19.320312-6.625h-15.289063c-6.964844 0-13.828125 2.351562-19.324219 6.625l-205.496094 159.671875c-5.46875 4.25-7.550781 11.226563-5.304687 17.773437 2.246094 6.550782 8.171875 10.785157 15.09375 10.785157h11.136719v17.910156c0 10.984375 8.941406 19.921875 19.925781 19.921875h9.390625l-12.324219 188.882812c-9.597656 1.425782-16.992187 9.695313-16.992187 19.683594v17.910156h-4.859375c-12.269531 0-22.25 9.980469-22.25 22.25v8.335938c0 12.269531 9.980469 22.25 22.25 22.25h432.792969c12.269531 0 22.25-9.980469 22.25-22.25v-8.335938c0-12.269531-9.980469-22.25-22.25-22.25h-4.859376v-17.910156c0-9.988281-7.394531-18.257812-16.988281-19.683594l-5.0625-77.546874c-.269531-4.136719-3.855469-7.285157-7.972656-6.996094-4.132813.269531-7.265625 3.835937-6.996094 7.96875l4.980469 76.332031h-44.300781l12.308593-188.640625h19.683594l5.042969 77.308594c.269531 4.132812 3.847656 7.273437 7.976563 6.996094 4.132812-.269532 7.265624-3.839844 6.996093-7.972657l-4.980469-76.332031h9.386719c10.984375.003906 19.921875-8.9375 19.921875-19.921875zm-435.109375-33.558594c-.222656-.644531.117188-.90625.316407-1.0625l205.496093-159.675781c2.878907-2.234375 6.472657-3.46875 10.121094-3.46875h15.289063c3.644531 0 7.238281 1.234375 10.117187 3.46875l205.492187 159.675781c.203126.15625.539063.417969.320313 1.0625-.222656.648438-.648437.648438-.90625.648438-4.164063 0-440.480469 0-445.34375 0-.253906 0-.679687 0-.902344-.648438zm298.175781 242.121094h-44.300781l12.308594-188.636719h19.683594zm-59.335937 0h-30.53125l-12.308594-188.636719h55.148438zm-45.5625 0h-44.300781l12.308594-188.636719h19.683593zm-59.335937 0h-30.53125l-12.308594-188.636719h55.152344zm-45.5625 0h-44.300782l12.308594-188.636719h19.683594zm358.839843 60.085937v8.335938c0 3.996094-3.25 7.25-7.246093 7.25h-432.792969c-3.996094 0-7.246094-3.253906-7.246094-7.25v-8.335938c0-3.996093 3.25-7.25 7.246094-7.25h432.792969c3.996093 0 7.246093 3.253907 7.246093 7.25zm-32.035156-45.085937c2.671875 0 4.925781 2.257813 4.925781 4.925781v17.910156h-393.066406v-17.910156c0-2.667968 2.253906-4.925781 4.921875-4.925781zm-71.445313-15h-30.53125l-12.308593-188.636719h55.152343zm-311.773437-203.640625c-2.667969 0-4.921875-2.253906-4.921875-4.921875v-17.910156h393.066406v17.910156c0 2.667969-2.253906 4.921875-4.925781 4.921875-78.957031 0-314.957031 0-383.21875 0zm0 0"/><path d="m213.207031 105.457031c0 15.1875 12.359375 27.546875 27.546875 27.546875 15.191406 0 27.550782-12.359375 27.550782-27.546875 0-15.191406-12.359376-27.546875-27.550782-27.546875-15.1875 0-27.546875 12.355469-27.546875 27.546875zm27.546875-12.546875c6.921875 0 12.546875 5.625 12.546875 12.542969s-5.625 12.546875-12.546875 12.546875c-6.917968 0-12.546875-5.628906-12.546875-12.546875s5.628907-12.542969 12.546875-12.542969zm0 0"/><path d="m240.753906 159.921875c30.035156 0 54.46875-24.433594 54.46875-54.464844 0-22.90625-14.476562-43.503906-36.023437-51.257812-3.894531-1.402344-8.195313.617187-9.597657 4.515625-1.402343 3.898437.621094 8.195312 4.519532 9.597656 15.613281 5.617188 26.101562 20.546875 26.101562 37.144531 0 21.761719-17.703125 39.464844-39.464844 39.464844-21.761718 0-39.46875-17.703125-39.46875-39.464844 0-15.5625 9.195313-29.714843 23.421876-36.058593 3.785156-1.683594 5.484374-6.121094 3.796874-9.902344-1.6875-3.785156-6.121093-5.484375-9.902343-3.796875-19.632813 8.75-32.316407 28.28125-32.316407 49.757812 0 30.03125 24.433594 54.464844 54.464844 54.464844zm0 0"/></svg>